<?xml version="1.0" encoding="utf-8"?>
<!-- Generator: Adobe Illustrator 22.0.1, SVG Export Plug-In . SVG Version: 6.00 Build 0)  -->
<svg version="1.1" id="Layer_1" xmlns="http://www.w3.org/2000/svg" xmlns:xlink="http://www.w3.org/1999/xlink" x="0px" y="0px"
	 viewBox="0 0 35 33.3" style="enable-background:new 0 0 35 33.3;" xml:space="preserve">
<style type="text/css">
	.st0{fill:#FFFFFF;}
</style>
<title>education</title>
<path class="st0" d="M21.1,25.1c-0.9-0.6-8.6-5.9-10.7-9.5l-0.1-0.2h-0.2c-1.4,0-2.8,0.5-3.8,1.5c-0.2-0.2-0.5-0.5-0.8-0.8l-0.3-0.3
	L5,16.1c-1.2,1.2-1.7,2.4-1.5,3.4c0.2,0.9,0.8,1.7,1.6,2.1c0.2,0.1,2.2,1.4,4.3,3.2C9,25.1,7.6,26,7.2,26.3s-2.8,2.5-2.8,2.5
	l1.5,0.4l0.5,1c0.4-0.9,0.9-1.8,1.5-2.6c0.6-0.6,1.3-1.1,2.1-1.5c-0.5,0.7-0.9,1.4-1.3,2.1C8.3,29,8.1,29.9,8,30.9l0.9-0.3L9.5,32
	c0.1-1.1,0.3-2.1,0.6-3.2c0.3-0.8,0.8-1.6,1.4-2.3c2.7,2.4,5.6,5.3,6.2,5.9c0.4,0.4,0.8,0.7,1.4,0.8c0.2,0,0.4,0.1,0.6,0.1
	c1.3-0.1,2.4-0.8,3-2c1-1.7,0.9-3.8-0.4-5.3C21.9,25.6,21.5,25.3,21.1,25.1z M9.5,23.8c-2-1.6-3.8-2.8-4-2.9
	c-0.6-0.3-1.1-0.8-1.2-1.5c0-0.9,0.3-1.8,1-2.4c1.9,2,3.6,3.6,5,4.8C9.9,22.4,9.6,23.1,9.5,23.8L9.5,23.8z M10.8,21.1
	c-1.1-1-2.4-2.2-3.8-3.6c0.8-0.7,1.8-1.2,2.9-1.3c0.9,1.3,2,2.6,3.2,3.6C12.1,20,11.3,20.4,10.8,21.1z M11.6,25.5
	c0.1-0.7,0.3-1.4,0.6-2c1.4,1.2,2.9,2.2,4.5,3c-0.2,1.3-0.2,2.5,0,3.8C15.4,29,13.4,27.1,11.6,25.5L11.6,25.5z M21.9,30.8
	c-0.5,1.1-1.6,1.7-2.8,1.6c-2.1-0.5-1.9-4.6-1.6-6.1l0.1-0.4l-0.4-0.1c0,0-1.3-0.4-4.6-3c0.6-0.6,1.4-1.1,2.3-1.2
	c1.8,1.5,3.7,2.8,4.8,3.6c0,0-0.1,0-0.1,0c-1.2,0.9-1.8,2.3-1.5,3.8c0.3,1.2,1.1,1.9,1.9,1.9c0.4,0,1.2-0.2,1.5-1.8l0-0.2l-0.2-0.2
	c-1.2-1-1.8-1.6-2.1-1.9c0.2-0.4,0.4-0.7,0.8-0.9c0.5-0.3,1-0.1,1.6,0.5C22.7,27.7,22.8,29.5,21.9,30.8L21.9,30.8z M20.7,29.2
	c-0.1,0.5-0.4,0.9-0.7,0.9l0,0c-0.4,0-0.8-0.4-1.1-1.3c-0.1-0.4-0.1-0.7,0-1.1C19.3,28,19.8,28.5,20.7,29.2L20.7,29.2z"/>
<path class="st0" d="M25.3,20.4l-0.3-0.2c-2.9-1.6-6-2.9-9.2-4c-3.2-0.9-6.5-1.6-9.9-1.9H5.5L7,9.5h0.2c3.5-0.7,7.1-0.6,10.5,0.3
	c3.4,1.2,6.4,3.1,9,5.7l0.1,0.1L25.3,20.4z M6.3,13.7c3.2,0.4,6.5,1,9.6,1.9c3.1,1,6.1,2.3,9,3.9l1.2-3.8c-2.5-2.4-5.4-4.2-8.6-5.4
	c-3.3-0.9-6.7-1-10-0.4L6.3,13.7z"/>
<path class="st0" d="M30.9,25.2l-1.6-1.9l-2.2,0.7l1.1-3.5l1.1,0.4c0.2-0.5,0.4-1.4,0.7-2.3c0.2-0.7,0.5-1.5,0.7-2.3l-4,0.8l0.6-2
	c-0.8-0.7-4.9-4.5-9.6-6S7.6,8.6,6.5,8.8L6.2,10L0,4.5L20.2,0l10.3,10.8c0.1,0,0.2-0.1,0.3-0.1l0,0c1.3-0.2,2.1,0,2.5,0.6
	c0.3,0.6,0.3,1.3-0.1,1.9l-0.1,0.3l1.9,1.9L32.4,16l-1.7,5.3l1.2,0.4L30.9,25.2z M29.5,22.6l1.1,1.3l0.6-1.8L30,21.7l2-6.3l1.8-0.3
	l-1.3-1.4l0.2-0.7l0,0c0.1-0.2,0.4-0.9,0.1-1.3s-0.9-0.5-1.9-0.3c-0.1,0-0.2,0.1-0.2,0.1l-0.2,0.2L20,0.7L1.3,4.8l4.5,4.1l0.2-0.6
	h0.2c0.3-0.1,6.3-1.3,11.7,0.4c3.7,1.4,7.2,3.5,10,6.3L28,15l-0.4,1.3l3.5-0.7c-0.1,0-0.2,0-0.2,0c-0.6-0.2-0.9-0.8-0.7-1.4
	c0.2-0.6,0.8-0.9,1.4-0.7c0.3,0.1,0.5,0.3,0.7,0.6c0.1,0.3,0.2,0.6,0.1,0.9c-0.1,0.3-0.3,0.5-0.5,0.7c-0.1,0-0.1,0.1-0.2,0.1
	L31.5,16c-0.3,0.9-0.6,1.9-0.9,2.8C30.3,20,30,21,29.8,21.4l-0.1,0.3l-1.1-0.4L28,23.1L29.5,22.6z M31.3,13.9
	c-0.2,0-0.4,0.2-0.5,0.4c-0.1,0.1-0.1,0.3,0,0.4c0.1,0.1,0.2,0.2,0.3,0.3c0.1,0.1,0.3,0.1,0.4,0c0.1-0.1,0.2-0.2,0.3-0.3l0,0
	c0.1-0.1,0.1-0.3,0-0.4c-0.1-0.1-0.2-0.2-0.3-0.3C31.4,14,31.3,13.9,31.3,13.9z M32.3,13.5l-1.5-1.6l0.5-0.1c0.6-0.2,1-0.1,1.3,0.1
	c0.2,0.2,0.2,0.5,0.1,0.7L32.4,13L32.3,13.5z M31.9,12.2L31.9,12.2L31.9,12.2L31.9,12.2z"/>
</svg>
