<?xml version="1.0" encoding="UTF-8" standalone="no"?>
<svg width="184px" height="160px" viewBox="0 0 184 160" version="1.1" xmlns="http://www.w3.org/2000/svg" xmlns:xlink="http://www.w3.org/1999/xlink">
    <!-- Generator: sketchtool 41 (35326) - http://www.bohemiancoding.com/sketch -->
    <title>0DF53F17-E028-41FB-91F6-467EFBEFF18F</title>
    <desc>Created with sketchtool.</desc>
    <defs>
        <polygon id="path-1" points="0.51234374 6.97496789 0.516414576 13.8976148 7.60897333 10.4322219 15.8652095 6.96682907 7.60548404 3.51015637 0.508854453 0.0529023235"></polygon>
        <path d="M1.3741978,0.365665511 C0.843244522,0.649361488 0.409991302,1.22314823 0.275653726,1.79751631 C0.021517274,2.80498583 0.182024507,3.91884135 0.928150522,4.63563877 C1.63880211,5.29255773 2.83679088,5.33790258 3.70038958,4.99665352 C4.24471846,4.73156056 4.72449551,4.14498425 4.7570622,3.51306309 C4.64540499,3.19681184 4.31217802,3.22297233 4.00163142,3.24913281 C3.89520814,3.25785298 3.79169261,3.26657314 3.70038958,3.26134104 C3.41659418,3.30610455 3.29272447,3.65607376 3.09034579,3.84210391 C2.8745915,4.06185203 2.45471388,4.06185203 2.19359885,3.92523614 C1.68823369,3.63514537 1.67543963,3.05031309 1.68183666,2.50791894 C1.68183666,2.03644878 1.88654154,1.54521292 2.29420665,1.33418497 C2.84900339,1.10164729 3.21363395,1.63125187 3.55907343,1.95913 C3.90509446,2.08121229 4.3616096,2.11318622 4.67564549,1.86785896 C4.77567173,1.6632258 4.7012336,1.40510897 4.60760438,1.22314823 C4.45349417,0.881899173 4.10223921,0.495886615 3.76843069,0.365665511 C3.41950192,0.185448804 2.99671657,0.0953404512 2.57334966,0.0953404512 C2.14940121,0.0953404512 1.72545276,0.185448804 1.3741978,0.365665511 L1.3741978,0.365665511 Z" id="path-3"></path>
        <path d="M1.5015568,0.489491829 C1.5015568,0.489491829 1.37129006,6.86916324 0.646681316,7.69234665 L5.2507964,4.73330459 L5.12111121,0.372641641 L1.5015568,0.489491829 L1.5015568,0.489491829 Z M0.514669932,7.7772229 C0.561193768,7.76908408 0.604809864,7.74001687 0.646681316,7.69234665 L0.514669932,7.7772229 L0.514669932,7.7772229 Z" id="path-5"></path>
        <path d="M0.578058658,5.95645282 C0.578058658,8.78469243 3.60676036,9.56253098 4.4319769,9.53985856 C6.26676067,9.48928161 8.59295245,8.14753917 8.59295245,5.31929956 C8.59295245,2.49047861 6.73548831,0.430776063 4.46803287,0.197075689 C4.2755405,0.177309985 4.09293444,0.168008478 3.91905161,0.168008478 C0.789742111,0.168008478 0.578058658,3.27645599 0.578058658,5.95645282 L0.578058658,5.95645282 Z" id="path-7"></path>
        <path d="M0.500131234,3.21192679 C-0.14713163,4.11766107 1.01945355,5.5867179 5.78291278,5.99191482 L7.5467477,11.3583033 C7.5467477,11.3583033 15.2394639,6.74184886 8.74589956,1.43650155 C8.00907831,0.834228948 6.72502045,0.502862746 5.38164469,0.502281401 C3.26713636,0.502281401 1.00607795,1.32488346 0.500131234,3.21192679 L0.500131234,3.21192679 Z" id="path-9"></path>
        <path d="M0.0982816029,2.76196636 C0.0982816029,4.0891752 1.1741453,5.16408066 2.50007462,5.16408066 C3.82658548,5.16408066 4.90244919,4.0891752 4.90244919,2.76196636 C4.90244919,1.43592021 3.82658548,0.359852069 2.50007462,0.359852069 C1.1741453,0.359852069 0.0982816029,1.43592021 0.0982816029,2.76196636 L0.0982816029,2.76196636 Z" id="path-11"></path>
        <polygon id="path-13" points="0.0819982604 3.7025813 1.56610862 3.7025813 1.56610862 0.308693778 0.0819982604 0.308693778"></polygon>
        <polygon id="path-15" points="0.160507233 3.7025813 1.64461759 3.7025813 1.64461759 0.308693778 0.160507233 0.308693778"></polygon>
        <polygon id="path-17" points="0.360559727 5.38615415 1.32476622 5.38615415 1.32476622 0.429613375 0.360559727 0.429613375"></polygon>
        <polygon id="path-19" points="0.270419795 3.69851189 5.97133431 3.69851189 5.97133431 0.312763187 0.270419795 0.312763187"></polygon>
        <polygon id="path-21" points="0.30298648 5.4408005 7.12745163 5.4408005 7.12745163 0.281951944 0.30298648 0.281951944"></polygon>
        <path d="M0.851386193,0.377292395 C0.409991302,0.377292395 0.0517577672,0.734819087 0.0517577672,1.17605935 L0.0517577672,6.44536331 C0.0517577672,6.88718491 0.409991302,7.2447116 0.851386193,7.2447116 L6.87680446,7.2447116 L6.87680446,0.377292395 L0.851386193,0.377292395 L0.851386193,0.377292395 Z" id="path-23"></path>
        <path d="M3.28109351,1.8841366 L0.40475737,6.85056022 C0.40475737,6.85056022 0.0982816029,9.71484317 2.83155695,11.2164553 L2.83155695,21.3254498 L10.7714311,20.0238201 C7.99279497,17.4205607 8.40976485,0.43310144 8.40976485,0.43310144 L3.28109351,1.8841366 L3.28109351,1.8841366 Z" id="path-25"></path>
        <path d="M0.420459165,2.56198395 L5.37350302,8.7172565 C5.58576802,8.94746881 5.85328008,9.11896535 6.15161417,9.21488714 L13.2069539,11.6164201 C13.3895599,11.6751359 13.5733291,11.702459 13.7565167,11.702459 C14.5183445,11.702459 15.2266699,11.2147112 15.47092,10.4502436 C15.774488,9.50207119 15.252258,8.48820688 14.3043348,8.1847452 L7.00067417,5.99714692 L3.07406244,0.124989006 L0.420459165,2.56198395 L0.420459165,2.56198395 Z" id="path-27"></path>
        <path d="M0.28321385,1.02258447 L0.133756028,2.14864822 L2.08484939,4.92572953 L4.23715833,3.10728483 L4.2610018,2.59918998 L2.68500687,2.07365481 L2.0098297,0.347062496 C1.90049869,0.190680902 1.76150873,0.129058416 1.60972471,0.129058416 C1.03573689,0.129058416 0.28321385,1.02258447 0.28321385,1.02258447 L0.28321385,1.02258447 Z" id="path-29"></path>
        <path d="M16.7259005,8.72074456 C16.7259005,13.2691817 13.038305,16.956648 8.49001846,16.956648 C3.94231353,16.956648 0.254718,13.2691817 0.254718,8.72074456 C0.254718,4.17172608 3.94231353,0.484259731 8.49001846,0.484259731 C13.038305,0.484259731 16.7259005,4.17172608 16.7259005,8.72074456 L16.7259005,8.72074456 Z" id="path-31"></path>
    </defs>
    <g id="College---Sub-Pages" stroke="none" stroke-width="1" fill="none" fill-rule="evenodd">
        <g id="06--Scholorship" transform="translate(-996.000000, -326.000000)">
            <g id="Page-1" transform="translate(996.000000, 326.000000)">
                <g id="Group-6" transform="translate(11.831395, 0.089527)">
                    <g id="Group-3" fill="#9FE0DC">
                        <path d="M79.5930233,159.919463 C35.6352735,159.919463 0,124.120428 0,79.9597315 C0,35.7990349 35.6352735,0 79.5930233,0 C123.551192,0 159.186047,35.7990349 159.186047,79.9597315 C159.186047,124.120428 123.551192,159.919463 79.5930233,159.919463 Z" id="Fill-1"></path>
                    </g>
                    <path d="M105.89447,26.5289354 L105.89447,74.9525831" id="Stroke-4" stroke="#BCBCBC" stroke-width="1.08"></path>
                </g>
                <g id="Group-9" transform="translate(117.884850, 25.656105)">
                    <mask id="mask-2" fill="white">
                        <use xlink:href="#path-1"></use>
                    </mask>
                    <g id="Clip-8"></g>
                    <polygon id="Fill-7" fill="#ED7D22" mask="url(#mask-2)" points="-2.39888528 16.8043359 19.9360451 16.8043359 19.9360451 -2.85381875 -2.39888528 -2.85381875"></polygon>
                </g>
                <g id="Group-12" transform="translate(119.629494, 29.725515)">
                    <mask id="mask-4" fill="white">
                        <use xlink:href="#path-3"></use>
                    </mask>
                    <g id="Clip-11"></g>
                    <polygon id="Fill-10" fill="#FFFFFF" mask="url(#mask-4)" points="-2.74432476 8.11323986 7.66422038 8.11323986 7.66422038 -2.81138062 -2.74432476 -2.81138062"></polygon>
                </g>
                <path d="M92.2302696,62.5001901 C93.0706064,62.35311 93.2165749,55.2130403 93.2165749,55.2130403 L96.8367109,55.0956088 L96.9658145,59.4568531 L92.2302696,62.5001901 Z" id="Fill-13" fill="#FFEEA6"></path>
                <g id="Group-17" transform="translate(91.715193, 54.723316)">
                    <mask id="mask-6" fill="white">
                        <use xlink:href="#path-5"></use>
                    </mask>
                    <g id="Clip-16"></g>
                    <polygon id="Fill-15" fill="#FFEEA6" mask="url(#mask-6)" points="-2.39248825 10.683944 8.15853614 10.683944 8.15853614 -2.53407943 -2.39248825 -2.53407943"></polygon>
                </g>
                <g id="Group-20" transform="translate(89.389001, 48.909874)">
                    <mask id="mask-8" fill="white">
                        <use xlink:href="#path-7"></use>
                    </mask>
                    <g id="Clip-19"></g>
                    <polygon id="Fill-18" fill="#FFEEA6" mask="url(#mask-8)" points="-2.33026262 12.4465796 11.5006922 12.4465796 11.5006922 -2.73871259 -2.33026262 -2.73871259"></polygon>
                </g>
                <g id="Group-23" transform="translate(89.389001, 46.003153)">
                    <mask id="mask-10" fill="white">
                        <use xlink:href="#path-9"></use>
                    </mask>
                    <g id="Clip-22"></g>
                    <polygon id="Fill-21" fill="#666666" mask="url(#mask-10)" points="-2.57160502 14.2650243 14.2589741 14.2650243 14.2589741 -2.40443967 -2.57160502 -2.40443967"></polygon>
                </g>
                <path d="M99.5250326,46.4399748 C99.5250326,47.7666023 98.4497504,48.8420891 97.1232395,48.8420891 C95.7967287,48.8420891 94.7214465,47.7666023 94.7214465,46.4399748 C94.7214465,45.1133473 95.7967287,44.0378605 97.1232395,44.0378605 C98.4497504,44.0378605 99.5250326,45.1133473 99.5250326,46.4399748" id="Fill-24" fill="#666666"></path>
                <g id="Group-29" transform="translate(94.622932, 43.677776)">
                    <mask id="mask-12" fill="white">
                        <use xlink:href="#path-11"></use>
                    </mask>
                    <g id="Clip-27"></g>
                    <polygon id="Fill-26" fill="#666666" mask="url(#mask-12)" points="-112.220726 135.027077 515.269508 135.027077 515.269508 -44.6082856 -112.220726 -44.6082856"></polygon>
                    <polygon id="Fill-28" fill="#666666" mask="url(#mask-12)" points="-2.80945813 8.07138307 7.80960737 8.07138307 7.80960737 -2.54628766 -2.80945813 -2.54628766"></polygon>
                </g>
                <g id="Group-32" transform="translate(88.807453, 51.235251)">
                    <mask id="mask-14" fill="white">
                        <use xlink:href="#path-13"></use>
                    </mask>
                    <g id="Clip-31"></g>
                    <polygon id="Fill-30" fill="#5C90C7" mask="url(#mask-14)" points="-2.82574147 6.60930237 4.4744299 6.60930237 4.4744299 -2.59802729 -2.82574147 -2.59802729"></polygon>
                </g>
                <g id="Group-35" transform="translate(81.828877, 51.235251)">
                    <mask id="mask-16" fill="white">
                        <use xlink:href="#path-15"></use>
                    </mask>
                    <g id="Clip-34"></g>
                    <polygon id="Fill-33" fill="#5C90C7" mask="url(#mask-16)" points="-2.7472325 6.60930237 4.55293887 6.60930237 4.55293887 -2.59802729 -2.7472325 -2.59802729"></polygon>
                </g>
                <g id="Group-38" transform="translate(73.687206, 50.072562)">
                    <mask id="mask-18" fill="white">
                        <use xlink:href="#path-17"></use>
                    </mask>
                    <g id="Clip-37"></g>
                    <polygon id="Fill-36" fill="#5C90C7" mask="url(#mask-18)" points="-2.54718 8.29287522 4.23250595 8.29287522 4.23250595 -2.47652635 -2.54718 -2.47652635"></polygon>
                </g>
                <polygon id="Fill-39" fill="#FFB70D" points="83.2623932 54.9337626 88.9633077 54.9337626 88.9633077 51.5485952 83.2623932 51.5485952"></polygon>
                <g id="Group-44" transform="translate(82.991973, 51.235251)">
                    <mask id="mask-20" fill="white">
                        <use xlink:href="#path-19"></use>
                    </mask>
                    <g id="Clip-42"></g>
                    <polygon id="Fill-41" fill="#FFB70D" mask="url(#mask-20)" points="-100.589767 127.469602 526.900467 127.469602 526.900467 -52.1657604 -100.589767 -52.1657604"></polygon>
                    <polygon id="Fill-43" fill="#FFB70D" mask="url(#mask-20)" points="-2.63731994 6.60465162 8.87907404 6.60465162 8.87907404 -2.59395789 -2.63731994 -2.59395789"></polygon>
                </g>
                <polygon id="Fill-45" fill="#FFB70D" points="75.1532886 55.5133628 81.9777538 55.5133628 81.9777538 50.3545142 75.1532886 50.3545142"></polygon>
                <g id="Group-50" transform="translate(74.850302, 50.072562)">
                    <mask id="mask-22" fill="white">
                        <use xlink:href="#path-21"></use>
                    </mask>
                    <g id="Clip-48"></g>
                    <polygon id="Fill-47" fill="#FFB70D" mask="url(#mask-22)" points="-92.4480954 128.63229 535.042138 128.63229 535.042138 -51.003072 -92.4480954 -51.003072"></polygon>
                    <polygon id="Fill-49" fill="#FFB70D" mask="url(#mask-22)" points="-2.60475325 8.34752158 10.0351914 8.34752158 10.0351914 -2.62476913 -2.60475325 -2.62476913"></polygon>
                </g>
                <path d="M74.1666925,56.1548761 L68.1412743,56.1548761 C67.6998794,56.1548761 67.3422274,55.7967681 67.3422274,55.3555278 L67.3422274,50.0862238 C67.3422274,49.6444022 67.6998794,49.2868755 68.1412743,49.2868755 L74.1666925,49.2868755 L74.1666925,56.1548761 Z" id="Fill-51" fill="#FFB70D"></path>
                <g id="Group-56" transform="translate(67.290179, 48.909874)">
                    <mask id="mask-24" fill="white">
                        <use xlink:href="#path-23"></use>
                    </mask>
                    <g id="Clip-54"></g>
                    <polygon id="Fill-53" fill="#FFB70D" mask="url(#mask-24)" points="-84.8879721 129.794979 542.602262 129.794979 542.602262 -49.8403835 -84.8879721 -49.8403835"></polygon>
                    <polygon id="Fill-55" fill="#FFB70D" mask="url(#mask-24)" points="-2.85598196 10.152014 9.78396264 10.152014 9.78396264 -2.52942868 -2.85598196 -2.52942868"></polygon>
                </g>
                <g id="Group-61" transform="translate(89.389001, 58.792725)">
                    <path d="M7.57681372,0.664360168 C7.57681372,0.664360168 9.68550658,3.6100313 15.6899891,3.41004889" id="Stroke-57" stroke="#00C36C" stroke-width="4.32" stroke-linecap="round"></path>
                    <path d="M8.40976485,0.433275843 L3.28109351,1.88372966 L0.40475737,6.85073463 C0.40475737,6.85073463 0.0988631508,9.71501757 2.8321385,11.2166297 L2.8321385,21.3256242 L10.7714311,20.0239945 C7.99279497,17.4207351 8.40976485,0.433275843 8.40976485,0.433275843" id="Fill-59" fill="#2CAEA6"></path>
                </g>
                <g id="Group-65" transform="translate(89.389001, 58.792725)">
                    <mask id="mask-26" fill="white">
                        <use xlink:href="#path-25"></use>
                    </mask>
                    <g id="Clip-63"></g>
                    <polygon id="Fill-62" fill="#2CAEA6" mask="url(#mask-26)" points="-106.986794 119.912127 520.50344 119.912127 520.50344 -59.7232352 -106.986794 -59.7232352"></polygon>
                    <polygon id="Fill-64" fill="#2CAEA6" mask="url(#mask-26)" points="-2.51345022 24.2321709 13.6791708 24.2321709 13.6791708 -2.47361963 -2.51345022 -2.47361963"></polygon>
                </g>
                <path d="M94.4220075,67.0071774 C94.2394014,67.0071774 94.0550507,66.9792728 93.8724447,66.9211384 L86.8176866,64.5190241 C86.5193525,64.4236837 86.2512589,64.2521871 86.0389939,64.0219748 L81.08595,57.8667023 L83.7395533,55.4297073 L87.6667466,61.3018652 L94.9704072,63.4894635 C95.9177488,63.7923438 96.4405604,64.8067895 96.1369924,65.7543806 C95.8921607,66.5194296 95.1844168,67.0071774 94.4220075,67.0071774" id="Fill-66" fill="#2CAEA6"></path>
                <g id="Group-71" transform="translate(80.665782, 55.304660)">
                    <mask id="mask-28" fill="white">
                        <use xlink:href="#path-27"></use>
                    </mask>
                    <g id="Clip-69"></g>
                    <polygon id="Fill-68" fill="#2CAEA6" mask="url(#mask-28)" points="-98.2635749 123.400192 529.226659 123.400192 529.226659 -56.2351699 -98.2635749 -56.2351699"></polygon>
                    <polygon id="Fill-70" fill="#2CAEA6" mask="url(#mask-28)" points="-2.48728057 14.6091801 18.4653104 14.6091801 18.4653104 -2.78173207 -2.48728057 -2.78173207"></polygon>
                </g>
                <g id="Group-78" transform="translate(45.772905, 56.467349)">
                    <path d="M47.2290207,4.12562549 L48.4235202,4.12562549 C49.8739008,4.12562549 52.0262097,2.52867293 53.3771456,1.62817074 C53.3771456,1.62817074 59.7724284,-1.92733047 62.7743789,2.80190471" id="Stroke-72" stroke="#5C90C7" stroke-width="4.32" stroke-linecap="square" stroke-linejoin="round"></path>
                    <path d="M82.7620655,32.9572755 C82.7620655,51.9178171 67.4533973,66.9827711 48.6635832,66.9827711 C29.8737691,66.9827711 14.6029015,51.8660775 14.6029015,32.9061172 L14.5209033,15.8413392 L82.7620655,15.8413392 L82.7620655,32.9572755 Z" id="Fill-74" fill="#FFFFFF"></path>
                    <path d="M17.1625848,47.3459518 L12.3293398,47.3459518 C4.39121039,47.3459518 0.108109763,39.6326767 0.108109763,32.3751756 C0.108109763,23.9991681 5.19374655,17.9200517 12.2008178,17.9200517 L17.1625848,17.9200517 L17.1625848,25.4775265 L12.2008178,25.4775265 C8.62255324,25.4775265 7.66823306,29.8131916 7.66823306,32.3751756 C7.66823306,35.4533932 9.1145428,39.788477 12.3293398,39.788477 L17.1625848,39.788477 L17.1625848,47.3459518 Z" id="Fill-76" fill="#FFFFFF"></path>
                </g>
                <g id="Group-81" transform="translate(79.502686, 52.397939)">
                    <mask id="mask-30" fill="white">
                        <use xlink:href="#path-29"></use>
                    </mask>
                    <g id="Clip-80"></g>
                    <polygon id="Fill-79" fill="#FFEEA6" mask="url(#mask-30)" points="-2.7739837 7.83303195 7.16932308 7.83303195 7.16932308 -2.77766266 -2.7739837 -2.77766266"></polygon>
                </g>
                <g id="Group-104" transform="translate(0.350058, 38.205507)">
                    <g id="Group-87" transform="translate(79.734176, 49.654429)">
                        <path d="M16.725726,8.72057016 C16.725726,13.2690073 13.038712,16.957055 8.49042555,16.957055 C3.94213906,16.957055 0.254543536,13.2690073 0.254543536,8.72057016 C0.254543536,4.17213302 3.94213906,0.484085327 8.49042555,0.484085327 C13.038712,0.484085327 16.725726,4.17213302 16.725726,8.72057016" id="Fill-82" fill="#4DC66D"></path>
                        <g id="Group-86">
                            <mask id="mask-32" fill="white">
                                <use xlink:href="#path-31"></use>
                            </mask>
                            <g id="Clip-85"></g>
                            <polygon id="Fill-84" fill="#4DC66D" mask="url(#mask-32)" points="-97.6820269 90.8449164 529.808207 90.8449164 529.808207 -88.7904459 -97.6820269 -88.7904459"></polygon>
                        </g>
                    </g>
                    <path d="M106.229965,58.3749993 C106.229965,62.9234365 102.542951,66.6114842 97.9946649,66.6114842 C93.4463784,66.6114842 89.7587829,62.9234365 89.7587829,58.3749993 C89.7587829,53.8265622 93.4463784,50.1385145 97.9946649,50.1385145 C102.542951,50.1385145 106.229965,53.8265622 106.229965,58.3749993" id="Fill-88" fill="#5C90C7"></path>
                    <path d="M39.4412214,18.8340587 C38.2792886,18.8340587 37.2266868,19.4427261 36.4462495,20.3990373 C35.1098523,16.3993891 32.0235774,13.6077742 28.4284479,13.6077742 C26.4412986,13.6077742 24.6105857,14.4693263 23.1433402,15.9098973 C21.1044331,11.9875679 17.6331734,9.40639958 13.6926045,9.40639958 C9.44963073,9.40639958 5.75214889,12.4043917 3.79989243,16.8423734 C3.66206557,16.674365 3.51609704,16.5179834 3.36954695,16.3627645 C2.1099141,19.4781881 0.988689663,22.6639544 0.0122706617,25.9136686 L43.6103386,25.9136686 C43.7254851,25.3718557 43.7900369,24.9509625 43.7900369,24.3992669 C43.7900369,21.305353 41.8430144,18.8340587 39.4412214,18.8340587 L39.4412214,18.8340587 Z M165.49143,78.1254414 C161.628207,72.3573441 155.051481,68.5582596 147.585569,68.5582596 C139.54625,68.5582596 132.540923,72.9648488 128.841697,79.4910189 C126.118889,76.9040372 122.440017,75.3128981 118.387209,75.3128981 C112.42518,75.3128981 107.269176,78.7498051 104.785966,83.7482026 C103.032017,81.8937146 100.549971,80.7350956 97.7957598,80.7350956 C85.7740006,80.7350956 83.6775203,92.2916372 83.9264228,93.0642437 L173.694745,93.0642437 C174.778169,87.1118602 175.378908,80.9932124 175.467303,74.7495755 C171.717482,74.7577143 168.261924,76.0145805 165.49143,78.1254414 L165.49143,78.1254414 Z M183.212798,16.9533344 C180.228294,11.3154582 176.772736,5.96651008 172.893811,0.959973701 C172.165713,2.01918286 171.517287,3.17198844 170.972376,4.4114143 C168.985227,1.97907011 166.300802,0.484434134 163.34363,0.484434134 C158.99307,0.484434134 155.230455,3.71612662 153.418352,8.4162946 C152.138365,6.67226195 150.327424,5.47178615 148.317595,5.47178615 C139.544944,5.47178615 138.014891,16.2039817 138.196334,16.9533344 L183.212798,16.9533344 Z" id="Fill-90" fill="#FFFFFF"></path>
                </g>
            </g>
        </g>
    </g>
</svg>